<svg xmlns="http://www.w3.org/2000/svg" viewBox="0 0 1600 900"><defs><linearGradient id="sky" x1="0" x2="0" y1="0" y2="1"><stop stop-color="#bfe4ff"/><stop offset="1" stop-color="#f7fbff"/></linearGradient></defs><rect width="1600" height="900" fill="url(#sky)"/><rect y="610" width="1600" height="290" fill="#8a6a4b"/><rect y="660" width="1600" height="240" fill="#404b58"/><path d="M0 760 L1600 690 L1600 900 L0 900Z" fill="#343d48"/><g stroke="#f7bd18" stroke-width="12"><path d="M80 840h180"/><path d="M420 825h180"/><path d="M760 810h180"/><path d="M1100 795h180"/></g><g><rect x="250" y="270" width="600" height="360" fill="#d9e5ef" stroke="#062b59" stroke-width="14"/><rect x="300" y="330" width="130" height="170" fill="#8ec5e8" stroke="#062b59" stroke-width="10"/><rect x="480" y="330" width="130" height="170" fill="#8ec5e8" stroke="#062b59" stroke-width="10"/><rect x="660" y="330" width="130" height="170" fill="#8ec5e8" stroke="#062b59" stroke-width="10"/><rect x="475" y="500" width="150" height="130" fill="#9d7352" stroke="#062b59" stroke-width="10"/><path d="M220 270L550 90l330 180" fill="#062b59" stroke="#f7bd18" stroke-width="16"/></g><g fill="#f7bd18"><circle cx="1110" cy="250" r="70"/><circle cx="1290" cy="210" r="48"/></g><g stroke="#062b59" stroke-width="12" fill="none"><path d="M1010 610v-190l110-110 110 110v190"/><path d="M1120 420v190"/><path d="M1010 500h220"/></g><text x="90" y="120" font-family="Arial" font-size="54" font-weight="700" fill="#062b59">TW&amp;D ENGINEERING</text><text x="90" y="180" font-family="Arial" font-size="30" fill="#12213a">Building construction • site works • project delivery</text></svg>